<svg xmlns="http://www.w3.org/2000/svg" xmlns:xlink="http://www.w3.org/1999/xlink" width="500" zoomAndPan="magnify" viewBox="0 0 375 374.999991" height="500" preserveAspectRatio="xMidYMid meet" version="1.0"><defs><g/><clipPath id="cd0a8e0ff4"><path d="M 0.015625 0 L 149.984375 0 L 149.984375 99 L 0.015625 99 Z M 0.015625 0 " clip-rule="nonzero"/></clipPath><clipPath id="f62434bc19"><path d="M 252 123 L 375 123 L 375 375 L 252 375 Z M 252 123 " clip-rule="nonzero"/></clipPath><clipPath id="8179f9889d"><path d="M 273.234375 476.417969 L 141.644531 298.554688 L 377.992188 123.695312 L 509.582031 301.558594 Z M 273.234375 476.417969 " clip-rule="nonzero"/></clipPath><clipPath id="51344ca659"><path d="M 260.746094 459.535156 L 141.644531 298.554688 L 377.992188 123.695312 L 497.09375 284.675781 Z M 260.746094 459.535156 " clip-rule="nonzero"/></clipPath><clipPath id="3c98153749"><path d="M 273.253906 476.441406 L 141.664062 298.578125 L 378.011719 123.71875 L 509.601562 301.582031 Z M 273.253906 476.441406 " clip-rule="nonzero"/></clipPath></defs><rect x="-37.5" width="450" fill="#ffffff" y="-37.499999" height="449.999989" fill-opacity="1"/><rect x="-37.5" width="450" fill="#000000" y="-37.499999" height="449.999989" fill-opacity="1"/><g fill="#ffffff" fill-opacity="1"><g transform="translate(107.261717, 277.004607)"><g><path d="M 13.375 0 L 40.125 0 L 40.125 -80.234375 L 120.359375 -80.234375 L 120.359375 -106.984375 L 40.125 -106.984375 L 40.125 -160.46875 L 120.359375 -160.46875 L 120.359375 -187.21875 L 13.375 -187.21875 Z M 120.359375 -106.984375 L 147.09375 -106.984375 L 147.09375 -160.46875 L 120.359375 -160.46875 Z M 120.359375 -106.984375 "/></g></g></g><g clip-path="url(#cd0a8e0ff4)"><path fill="#ffffff" d="M -81.390625 71.375 C -30.722656 -14.5625 7.0625 -89.320312 35.09375 -151.148438 C 74.6875 -86.128906 139.171875 -48.738281 207.507812 -46.726562 C 202.351562 -40.285156 196.867188 -29.402344 190.53125 -14.164062 C 182.128906 -11.023438 176.941406 -9.25 175.464844 -8.714844 C 149.933594 -0.0351562 134.378906 6.996094 122.90625 16.074219 C 111.503906 24.976562 104.316406 34.714844 97.21875 44.851562 C 90.378906 55.003906 83.46875 65.125 73.59375 74.410156 C 63.734375 83.59375 50.875 91.925781 32.492188 96.230469 C 14.683594 100.429688 -1.980469 98.761719 -16.4375 94.164062 C -30.964844 89.667969 -43.289062 82.238281 -54.207031 77.464844 C -64.050781 73.074219 -72.589844 70.59375 -81.390625 71.375 Z M -81.390625 71.375 " fill-opacity="1" fill-rule="nonzero"/></g><g clip-path="url(#f62434bc19)"><g clip-path="url(#8179f9889d)"><g clip-path="url(#51344ca659)"><g clip-path="url(#3c98153749)"><path fill="#ffffff" d="M 266.109375 466.742188 C 268.496094 469.996094 271.179688 473.027344 274.097656 475.816406 L 509.59375 301.585938 L 378 123.722656 C 379.03125 127.105469 379.980469 130.511719 380.691406 133.976562 C 382.464844 142.585938 382.71875 151.8125 379.285156 159.914062 C 376.789062 165.804688 372.472656 170.785156 367.566406 174.890625 C 362.65625 179 357.136719 182.304688 351.648438 185.597656 C 346.164062 188.890625 340.652344 192.207031 335.761719 196.339844 C 330.871094 200.46875 326.589844 205.480469 324.148438 211.394531 C 321.433594 217.976562 321.136719 225.367188 322.285156 232.386719 C 323.433594 239.40625 325.957031 246.125 328.75 252.664062 C 331.539062 259.207031 334.609375 265.640625 336.921875 272.367188 C 339.234375 279.09375 340.78125 286.179688 340.402344 293.285156 C 339.976562 301.265625 337.109375 309 332.902344 315.800781 C 328.691406 322.597656 323.167969 328.503906 317.1875 333.816406 C 305.226562 344.4375 291.34375 352.8125 279.949219 364.039062 C 268.0625 375.746094 259.085938 390.558594 255.140625 406.757812 C 251.195312 422.960938 252.441406 440.523438 259.5 455.613281 C 261.332031 459.53125 263.554688 463.257812 266.109375 466.742188 Z M 266.109375 466.742188 " fill-opacity="1" fill-rule="nonzero"/></g></g></g></g></svg>